<?xml version="1.0" encoding="UTF-8" standalone="no"?>
<!-- Created with Inkscape (http://www.inkscape.org/) -->

<svg
   xmlns:dc="http://purl.org/dc/elements/1.1/"
   xmlns:cc="http://creativecommons.org/ns#"
   xmlns:rdf="http://www.w3.org/1999/02/22-rdf-syntax-ns#"
   xmlns:svg="http://www.w3.org/2000/svg"
   xmlns="http://www.w3.org/2000/svg"
   xmlns:sodipodi="http://sodipodi.sourceforge.net/DTD/sodipodi-0.dtd"
   xmlns:inkscape="http://www.inkscape.org/namespaces/inkscape"
   width="119.76592"
   height="24.99996"
   id="svg3398"
   version="1.1"
   inkscape:version="0.48.4 r9939"
   sodipodi:docname="tecnalia.svg">
  <defs
     id="defs3400" />
  <sodipodi:namedview
     id="base"
     pagecolor="#ffffff"
     bordercolor="#666666"
     borderopacity="1.0"
     inkscape:pageopacity="0.0"
     inkscape:pageshadow="2"
     inkscape:zoom="0.35"
     inkscape:cx="-243.6352"
     inkscape:cy="-132.42817"
     inkscape:document-units="px"
     inkscape:current-layer="layer1"
     showgrid="false"
     fit-margin-top="0"
     fit-margin-left="0"
     fit-margin-right="0"
     fit-margin-bottom="0"
     inkscape:window-width="1600"
     inkscape:window-height="837"
     inkscape:window-x="1276"
     inkscape:window-y="-4"
     inkscape:window-maximized="1" />
  <metadata
     id="metadata3403">
    <rdf:RDF>
      <cc:Work
         rdf:about="">
        <dc:format>image/svg+xml</dc:format>
        <dc:type
           rdf:resource="http://purl.org/dc/dcmitype/StillImage" />
        <dc:title />
      </cc:Work>
    </rdf:RDF>
  </metadata>
  <g
     inkscape:label="Capa 1"
     inkscape:groupmode="layer"
     id="layer1"
     transform="translate(-482.46825,-374.93405)">
    <path
       style="fill:#b3b3b3"
       d="m 554.75008,399.21592 c 1.8299,-1.87108 3.20144,-3.78332 4.27246,-5.95683 0.90199,-1.83046 1.39163,-3.2428 1.7451,-5.03386 0.27438,-1.39013 0.36972,-3.15525 0.22716,-4.20416 -0.19613,-1.4428 -0.69752,-2.59427 -1.51073,-3.46964 -1.09348,-1.17704 -2.38376,-1.78545 -4.65676,-2.19591 -0.37177,-0.0671 -0.70003,-0.14436 -0.72947,-0.17146 -0.0307,-0.0284 2.21819,-0.0494 5.27757,-0.0494 3.7253,0 5.34229,-0.0182 5.36832,-0.0602 0.0706,-0.11418 -0.85674,-1.85039 -1.55458,-2.91083 -0.0936,-0.14228 -0.10348,-0.18921 -0.0446,-0.21179 0.0417,-0.0159 1.43191,-0.0224 3.08941,-0.0143 l 3.01361,0.0143 0.32166,0.64779 c 0.38722,0.77974 1.05842,2.33411 1.05842,2.45104 0,0.073 -0.35659,0.0838 -2.77891,0.0838 -1.52842,0 -2.79587,0.017 -2.81656,0.0377 -0.0208,0.0207 0.1228,0.20448 0.31875,0.4084 0.64322,0.6691 1.07405,1.57137 1.25379,2.62585 0.12951,0.75984 0.087,2.55466 -0.0814,3.44094 -0.82653,4.3478 -3.93154,8.7693 -9.06274,12.90523 -1.32985,1.07193 -3.16421,2.38142 -3.33589,2.38142 -0.0423,0 0.23906,-0.32319 0.62537,-0.71821 z m 25.87609,-6.0696 c -0.28146,-0.0995 -0.56454,-0.40075 -0.64335,-0.6846 -0.0343,-0.1236 -0.0602,-0.75604 -0.0605,-1.47224 l 0,-1.25571 0.43654,0.0165 0.43656,0.0164 0.0283,1.22078 c 0.0276,1.19616 0.0309,1.22368 0.1647,1.36597 0.27535,0.29281 0.8103,0.1541 1.00936,-0.26163 0.10028,-0.20956 0.11689,-0.36562 0.12775,-1.19852 0.006,-0.5267 0.0238,-1.00195 0.0379,-1.0562 0.0214,-0.0825 0.0923,-0.0985 0.43948,-0.0985 l 0.4141,0 0.0159,1.47863 c 0.008,0.81326 0.008,1.57478 -10e-4,1.69229 l -0.0176,0.21363 -0.40486,-0.0165 c -0.37108,-0.0143 -0.40633,-0.027 -0.42286,-0.14324 -0.0228,-0.16111 -0.0701,-0.15921 -0.32415,0.0127 -0.37769,0.25633 -0.81867,0.31692 -1.23506,0.16969 z m 3.49361,0.0186 c -0.15426,-0.0294 -0.29997,-0.0837 -0.3238,-0.12041 -0.0466,-0.072 10e-4,-0.54749 0.0628,-0.61453 0.0203,-0.0224 0.16074,-0.004 0.31219,0.0423 0.6652,0.2002 1.20472,-0.0128 1.07417,-0.42416 -0.0432,-0.13654 -0.15122,-0.1972 -0.65435,-0.36832 -0.66777,-0.22713 -0.83753,-0.42072 -0.83777,-0.95535 0,-0.40924 0.11881,-0.63242 0.45613,-0.85566 0.21077,-0.13957 0.29614,-0.15825 0.80489,-0.17682 0.31299,-0.0111 0.65781,0.002 0.76627,0.0303 0.18737,0.0486 0.19799,0.0647 0.21462,0.32327 0.01,0.14963 -0.005,0.29459 -0.0325,0.32207 -0.029,0.029 -0.21307,0.0225 -0.43996,-0.016 -0.32857,-0.0554 -0.42194,-0.0522 -0.59302,0.0203 -0.41429,0.17574 -0.27233,0.51739 0.28754,0.69198 0.73996,0.2308 0.95773,0.46892 0.95738,1.04695 0,0.42542 -0.11386,0.65092 -0.43415,0.86145 -0.37135,0.24413 -0.97411,0.31569 -1.62048,0.19241 z m 9.66185,0.008 c -0.8262,-0.1737 -1.31144,-0.94411 -1.21924,-1.93587 0.081,-0.87209 0.54021,-1.43406 1.26537,-1.54869 0.32997,-0.0522 0.90053,0.0143 1.12532,0.12999 0.4422,0.22869 0.71756,0.75001 0.7788,1.47442 l 0.0353,0.41726 -1.13661,0 c -1.27714,0 -1.3058,0.01 -1.10042,0.38488 0.25554,0.4665 0.80556,0.58551 1.51283,0.32736 0.21489,-0.0784 0.41134,-0.12982 0.43654,-0.11434 0.0253,0.0159 0.0458,0.15171 0.0458,0.30261 0,0.31639 -0.0768,0.41875 -0.38214,0.5089 -0.29242,0.0864 -1.06141,0.11657 -1.36155,0.0535 z m 1.06772,-2.22618 c 0,-0.36308 -0.29512,-0.62063 -0.701,-0.6117 -0.37603,0.008 -0.70724,0.30792 -0.70724,0.63987 0,0.11018 0.0317,0.11545 0.70413,0.11545 l 0.70411,0 0,-0.14356 z m 1.74622,2.20829 -0.30983,-0.065 0.006,-0.32588 c 0.004,-0.17921 0.0203,-0.33937 0.0367,-0.35589 0.0164,-0.0164 0.16388,0.01 0.32748,0.0583 0.54402,0.16158 0.93705,0.0944 1.06278,-0.1815 0.10524,-0.23097 -0.0664,-0.40537 -0.57679,-0.58604 -0.69282,-0.24526 -0.8153,-0.35976 -0.88799,-0.83018 -0.0483,-0.31245 0.0203,-0.56845 0.21409,-0.7987 0.24961,-0.29665 0.52419,-0.38619 1.169,-0.38119 0.80342,0.006 0.84107,0.0218 0.86242,0.35534 0.01,0.15026 -0.005,0.29564 -0.0324,0.32313 -0.029,0.029 -0.21565,0.0215 -0.44613,-0.0181 -0.44025,-0.0755 -0.70335,-0.0143 -0.81155,0.18744 -0.12759,0.23845 0.0262,0.3718 0.66887,0.57997 0.543,0.17587 0.80098,0.49357 0.80098,0.98641 0,0.38967 -0.11642,0.63818 -0.39284,0.8384 -0.38167,0.27646 -1.01159,0.35593 -1.69136,0.21334 z m 2.99353,0.0159 c -0.36051,-0.0709 -0.41353,-0.13414 -0.36981,-0.44096 0.0203,-0.14244 0.0535,-0.27716 0.0738,-0.29951 0.0203,-0.0223 0.16074,-0.003 0.31217,0.0423 0.69024,0.20774 1.27426,-0.054 1.05107,-0.47105 -0.0549,-0.10268 -0.58441,-0.34692 -0.75351,-0.34764 -0.1279,0 -0.49654,-0.25925 -0.60609,-0.42545 -0.15106,-0.22917 -0.15074,-0.7742 0,-1.0225 0.15649,-0.25672 0.48665,-0.45454 0.84692,-0.50748 0.31787,-0.0468 1.12074,-0.005 1.23287,0.0647 0.0776,0.0479 0.0835,0.57588 0.006,0.62318 -0.0306,0.019 -0.20954,0.005 -0.39751,-0.0328 -0.43967,-0.0865 -0.76368,-0.005 -0.84673,0.21366 -0.0773,0.20346 0.0843,0.36286 0.49748,0.49056 0.47333,0.14628 0.77392,0.33789 0.87964,0.5607 0.11322,0.23851 0.11881,0.70684 0.0112,0.9634 -0.21187,0.50709 -1.05445,0.76291 -1.9396,0.58888 z m -23.58618,-0.069 c -0.0674,-0.0378 -0.0803,-0.40109 -0.0803,-2.25598 0,-1.64453 0.0174,-2.22827 0.0675,-2.27854 0.0462,-0.0462 0.31941,-0.0675 0.86277,-0.0675 1.52419,0 2.00573,0.20772 2.17359,0.93761 0.087,0.37841 -0.01,0.71505 -0.27953,0.97555 -0.11354,0.10954 -0.25488,0.22602 -0.31397,0.25882 -0.0958,0.0532 -0.0738,0.0786 0.20536,0.23616 0.23775,0.13414 0.34141,0.23562 0.43205,0.42287 0.16461,0.34004 0.15698,0.73257 -0.0211,1.09011 -0.28174,0.56535 -0.62578,0.68815 -1.99021,0.71025 -0.53676,0.008 -1.01202,-0.005 -1.05619,-0.0293 z m 1.81998,-0.7808 c 0.25799,-0.0784 0.40928,-0.29373 0.40928,-0.58238 0,-0.45732 -0.33262,-0.67245 -0.98577,-0.63765 l -0.33798,0.0181 0,0.61708 c 0,0.61122 0.002,0.61743 0.14084,0.65252 0.16507,0.0415 0.51565,0.0111 0.77364,-0.0676 z m -0.048,-2.02491 c 0.32876,-0.11465 0.445,-0.54703 0.21792,-0.81072 -0.10076,-0.11689 -0.21002,-0.16004 -0.53198,-0.2098 -0.54891,-0.0849 -0.58053,-0.0553 -0.58053,0.54535 0,0.25439 0.0169,0.4794 0.0376,0.50007 0.0605,0.0605 0.66202,0.0431 0.85703,-0.0249 z m -93.2748,2.7661 c -0.90172,-0.14515 -1.42169,-0.51253 -1.71538,-1.21217 -0.2807,-0.66884 -0.27559,-0.55016 -0.29667,-6.88011 l -0.0198,-5.92376 0.70588,-0.60052 c 0.436,-0.37097 0.74361,-0.59329 0.80464,-0.58154 0.091,0.0176 0.1,0.14835 0.1137,1.67802 0.01,1.04609 0.0364,1.68056 0.0731,1.7173 0.0367,0.0367 0.77045,0.0687 1.98472,0.0864 l 1.92655,0.0282 0,0.56327 0,0.5633 -1.97152,0.0281 -1.97151,0.0281 -0.0159,3.77407 c -0.0174,4.06102 0.005,4.50112 0.24064,4.90443 0.22227,0.37929 0.53452,0.5032 1.26814,0.5032 0.54834,0 0.61916,-0.0128 0.97123,-0.17989 0.36498,-0.17291 0.86699,-0.50859 1.28101,-0.85663 0.10795,-0.0907 0.21566,-0.15299 0.23942,-0.13829 0.0238,0.0144 0.0431,0.35383 0.0431,0.75368 l 0,0.72701 -0.17587,0.20029 c -0.20357,0.23187 -0.79242,0.52781 -1.40135,0.70429 -0.47771,0.13845 -1.56118,0.19725 -2.08417,0.11306 z m 9.54785,0.0225 c -0.0929,-0.0127 -0.4098,-0.077 -0.70412,-0.14164 -2.26702,-0.49867 -3.78433,-2.11681 -4.19543,-4.4742 -0.33896,-1.94373 -0.0143,-3.87458 0.87691,-5.20612 0.37164,-0.55559 1.10689,-1.28211 1.58821,-1.56937 0.866,-0.51683 1.63616,-0.73116 2.80058,-0.77944 1.59416,-0.0661 2.77172,0.34312 3.75009,1.30323 1.06442,1.04455 1.59139,2.65415 1.49895,4.57855 l -0.0224,0.46472 -4.47024,0 c -5.12556,0 -4.6094,-0.0672 -4.51988,0.58884 0.0797,0.58362 0.35288,1.37386 0.61611,1.78189 0.58417,0.9054 1.66686,1.68809 2.73033,1.97378 0.61429,0.16502 1.9718,0.18088 2.47299,0.0289 0.50382,-0.15282 1.04773,-0.45818 1.42669,-0.80111 0.18548,-0.16786 0.36494,-0.3052 0.3988,-0.3052 0.0413,0 0.0616,0.24048 0.0616,0.73321 l 0,0.73326 -0.2546,0.24392 c -0.3249,0.31131 -0.74476,0.51575 -1.4276,0.69508 -0.45859,0.1204 -0.69141,0.14515 -1.50041,0.15904 -0.5267,0.01 -1.03366,0.006 -1.1266,-0.008 z m 4.0169,-7.19851 c 0.01,-0.15171 -0.0238,-0.47991 -0.0744,-0.72931 -0.28733,-1.41802 -1.18554,-2.48211 -2.42161,-2.86885 -0.52184,-0.16326 -1.57578,-0.1734 -2.08179,-0.0202 -1.32322,0.4011 -2.26334,1.46332 -2.65235,2.99694 -0.13973,0.55058 -0.16996,0.81852 -0.10045,0.88811 0.0209,0.0209 1.67486,0.0315 3.6755,0.0235 l 3.63751,-0.0144 0.0176,-0.27585 z m 7.58413,7.15019 c -0.89534,-0.16264 -1.51351,-0.41153 -2.26663,-0.91265 -1.33018,-0.88505 -2.13434,-2.15264 -2.40945,-3.79796 -0.14101,-0.84323 -0.0893,-2.19452 0.11178,-2.9173 0.47946,-1.72398 1.77008,-3.10257 3.51988,-3.75981 1.02949,-0.3867 1.43732,-0.43601 3.63836,-0.44002 l 1.97154,-0.003 0.016,0.62583 0.0159,0.62585 -1.79023,0.0334 c -1.88664,0.0351 -2.24339,0.0755 -2.94815,0.3326 -0.64127,0.23396 -1.12276,0.54264 -1.60223,1.02715 -0.64657,0.65333 -1.00654,1.31464 -1.19181,2.18943 -0.12679,0.59845 -0.0766,2.05678 0.0904,2.6278 0.19043,0.65139 0.54043,1.26942 0.98247,1.73481 0.75372,0.79356 1.65224,1.19872 2.92355,1.31828 1.26455,0.11896 2.19322,-0.14213 3.01207,-0.84697 0.22091,-0.19014 0.42839,-0.34571 0.46105,-0.34571 0.0385,0 0.0594,0.25433 0.0594,0.72511 l 0,0.7251 -0.24296,0.22396 c -0.48916,0.45089 -1.07306,0.69439 -2.0003,0.83416 -0.65779,0.0992 -1.80604,0.0993 -2.35042,0 z m 6.49009,0.0447 c -0.0207,-0.0208 -0.0377,-2.37169 -0.0378,-5.22455 l 0,-5.187 0.63393,-0.60555 c 0.87258,-0.83357 0.85505,-0.84157 0.87466,0.39855 0.01,0.5987 0.0365,0.96884 0.0701,0.95763 0.0301,-0.01 0.18969,-0.19578 0.35473,-0.41267 0.60763,-0.7984 1.48933,-1.37713 2.50447,-1.64387 0.46838,-0.12312 0.67422,-0.14452 1.42084,-0.14835 1.01736,-0.005 1.39234,0.0693 2.14052,0.42557 0.69017,0.32857 1.24054,0.88741 1.59565,1.62021 0.1426,0.29433 0.31609,0.75058 0.38547,1.01394 0.12424,0.47173 0.12648,0.54044 0.14516,4.6628 l 0.0188,4.18404 -0.80507,-0.016 -0.80506,-0.0159 -0.0287,-3.91491 c -0.0321,-4.35648 -0.0294,-4.32523 -0.42795,-5.16509 -0.47142,-0.9935 -1.30371,-1.44925 -2.64138,-1.44642 -1.15247,0.004 -1.85595,0.27124 -2.5714,0.98262 -0.35268,0.35068 -0.47687,0.52461 -0.68434,0.95854 -0.50457,1.05538 -0.54264,1.43209 -0.54478,5.38855 l -0.001,3.22485 -0.77921,0 c -0.42857,0 -0.79613,-0.017 -0.81679,-0.0375 z m 14.49543,-0.0688 c -1.72647,-0.38216 -2.72056,-1.42255 -2.85072,-2.98351 -0.0921,-1.10454 0.41365,-2.22722 1.29529,-2.8752 1.25609,-0.92322 2.76897,-1.28833 5.41638,-1.30718 0.74223,-0.005 1.3812,-0.0215 1.41993,-0.0361 0.0982,-0.0369 0.0899,-0.72963 -0.0144,-1.22553 -0.23533,-1.11599 -0.98634,-1.88484 -2.09763,-2.14751 -0.29483,-0.0696 -0.55105,-0.0826 -1.14068,-0.0575 -1.07767,0.0458 -1.96849,0.26312 -2.8409,0.69298 -0.21481,0.10587 -0.42392,0.17963 -0.46471,0.16398 -0.0551,-0.0211 -0.0739,-0.1849 -0.0733,-0.63576 0,-0.33402 0.0199,-0.6374 0.0435,-0.67417 0.17328,-0.2725 2.19614,-0.79739 3.42002,-0.88745 0.5389,-0.0396 1.51701,0.0414 2.01006,0.16647 1.02438,0.25994 1.86694,0.91337 2.29149,1.77712 0.46731,0.95072 0.47906,1.04213 0.50131,3.89336 0.0193,2.49089 0.0186,2.51925 -0.10284,2.76011 -0.52898,1.05156 -1.29226,1.95477 -2.11387,2.50145 -1.01102,0.67272 -1.86393,0.92076 -3.29033,0.9569 -0.76533,0.0193 -1.01398,0.005 -1.40824,-0.0824 z m 2.58959,-1.22152 c 0.7452,-0.17273 1.59736,-0.70472 2.00236,-1.25007 0.55944,-0.75323 0.77237,-1.52751 0.74726,-2.71698 l -0.0159,-0.76045 -1.07026,-0.0176 c -0.58866,-0.01 -1.38333,0.0112 -1.76597,0.0455 -1.77814,0.16139 -3.00557,0.76034 -3.4324,1.67496 -0.21223,0.45472 -0.24413,1.19604 -0.0714,1.6569 0.29373,0.7834 0.94409,1.28632 1.88128,1.45475 0.37083,0.0666 1.25451,0.0221 1.72515,-0.087 z m 6.59153,1.20118 c 0,-0.0698 0,-3.70085 -10e-4,-8.0692 l -10e-4,-7.94243 0.69177,-0.66022 c 0.63677,-0.60772 0.88711,-0.77455 0.89005,-0.59313 0,0.0388 0,3.91068 0,8.60433 0,4.69364 -0.002,8.59094 -0.002,8.66065 0,0.12535 -0.008,0.12679 -0.78848,0.12679 -0.78007,0 -0.7886,-0.002 -0.78919,-0.12679 z m 4.20802,0.0907 c -0.0216,-0.0216 -0.0391,-2.35107 -0.0391,-5.17686 l 0,-5.13777 0.70261,-0.65918 c 0.45818,-0.42988 0.73739,-0.65248 0.80267,-0.6399 0.0952,0.0182 0.10013,0.30671 0.10013,5.82042 l 0,5.80118 -0.76362,0.016 c -0.41999,0.008 -0.78122,-0.002 -0.8027,-0.0235 z m 6.07268,-0.0448 c -1.96046,-0.38903 -3.06232,-1.70982 -2.93986,-3.52398 0.10204,-1.51164 1.12342,-2.61229 2.96801,-3.19848 1.10434,-0.35097 2.00527,-0.46607 3.65719,-0.46725 0.63745,0 1.24769,-0.0203 1.35612,-0.0437 l 0.19715,-0.0429 -0.008,-0.50823 c -0.0207,-1.45208 -0.80377,-2.47186 -2.16141,-2.81507 -0.28964,-0.0733 -0.52502,-0.0859 -1.12658,-0.0604 -1.08605,0.046 -1.89768,0.24206 -2.82517,0.68232 -0.23287,0.1105 -0.45292,0.20097 -0.48899,0.20097 -0.0957,0 -0.0912,-1.31734 0.005,-1.39549 0.21158,-0.17241 1.77304,-0.62147 2.60523,-0.74924 0.59651,-0.0917 1.81131,-0.0913 2.33371,0 1.69865,0.29868 2.6865,1.20027 3.11373,2.84189 0.11018,0.42348 0.12072,0.63963 0.1426,2.94298 0.0237,2.48207 0.0235,2.48632 -0.10172,2.7319 -0.56247,1.10252 -1.33607,1.98936 -2.24942,2.57875 -0.59215,0.38209 -0.89717,0.51209 -1.6899,0.72018 -0.67316,0.17668 -2.14764,0.23233 -2.78829,0.10524 z m 1.99969,-1.16018 c 1.75245,-0.22706 2.94746,-1.37173 3.21134,-3.07604 0.0329,-0.21249 0.0525,-0.69052 0.0437,-1.06229 l -0.0159,-0.67596 -1.46458,10e-4 c -1.14244,0.002 -1.59212,0.0242 -2.04455,0.10252 -2.10481,0.36417 -3.15013,1.37323 -2.94238,2.84024 0.13526,0.9545 0.86376,1.65761 1.91701,1.84996 0.46056,0.0841 0.76162,0.0886 1.29557,0.0193 z m 38.82417,-0.43468 0.0144,-1.67579 0.42247,0 0.42247,0 0.0144,1.67579 0.0144,1.67579 -0.45231,0 -0.45232,0 0.0143,-1.67579 z m 1.81481,1.60465 c -0.0144,-0.0391 -0.0205,-0.79322 -0.0128,-1.67578 l 0.0144,-1.60466 0.40671,-0.0164 c 0.39452,-0.016 0.40778,-0.0128 0.44265,0.12679 0.0433,0.17252 0.0786,0.17676 0.263,0.0317 0.22413,-0.1763 0.43562,-0.23431 0.84949,-0.233 0.50907,10e-4 0.81484,0.17061 1.00413,0.55499 0.12695,0.25798 0.13206,0.31845 0.13206,1.56391 l 0,1.2956 -0.43655,0.0165 -0.43656,0.0164 0,-1.10258 c 0,-0.81556 -0.0204,-1.15156 -0.0786,-1.2906 -0.22015,-0.52691 -0.83939,-0.49166 -1.11268,0.0632 -0.12168,0.247 -0.13414,0.35351 -0.15202,1.29711 l -0.0194,1.02801 -0.41886,0 c -0.28541,0 -0.42756,-0.0226 -0.44617,-0.0712 z m -1.80374,-4.00249 c -0.0168,-0.0436 -0.0226,-0.22847 -0.0127,-0.4109 l 0.0171,-0.33165 0.42247,0 0.42248,0 0,0.3943 0,0.3943 -0.40922,0.0165 c -0.31111,0.0127 -0.41648,-0.004 -0.43959,-0.0626 z m 12.70829,-1.87476 c -0.1692,-0.0455 -0.32726,-0.11354 -0.35121,-0.15122 -0.0475,-0.0746 10e-4,-0.60594 0.0623,-0.67325 0.0204,-0.0229 0.17576,0.0127 0.34506,0.0784 0.38006,0.14803 0.91001,0.16189 1.16141,0.0305 0.29347,-0.15346 0.54875,-0.71082 0.44698,-0.97597 -0.0324,-0.0845 -0.044,-0.0848 -0.13398,-0.003 -0.19531,0.17676 -0.60018,0.3181 -0.91319,0.31879 -0.73945,0.002 -1.21428,-0.46059 -1.35077,-1.31489 -0.11465,-0.71799 0.10268,-1.44412 0.5546,-1.8524 0.42151,-0.38079 1.07246,-0.42724 1.57853,-0.11274 0.28909,0.1797 0.34424,0.18054 0.34424,0.005 0,-0.091 0.0505,-0.10332 0.42535,-0.10332 l 0.42531,0 -0.017,1.84896 -0.0169,1.84895 -0.169,0.32872 c -0.20105,0.39109 -0.55773,0.6643 -0.98761,0.75651 -0.39099,0.0838 -1.03393,0.0706 -1.40423,-0.0289 z m 1.33856,-2.20864 c 0.23595,-0.15251 0.32004,-0.39223 0.32004,-0.91203 0,-0.71513 -0.20778,-1.01726 -0.70428,-1.02411 -0.41824,-0.006 -0.7141,0.32952 -0.77018,0.87285 -0.0891,0.86301 0.55158,1.45307 1.15442,1.06329 z m -16.1741,2.20486 c -0.0208,-0.0208 -0.0376,-1.09797 -0.0376,-2.39398 l 0,-2.35647 0.42247,0 c 0.41308,0 0.42247,0.003 0.42247,0.14084 0,0.17761 0.0802,0.1782 0.28934,0.002 0.47849,-0.4026 1.33772,-0.32255 1.78866,0.16665 0.31992,0.34708 0.41818,0.72088 0.39181,1.49085 -0.0186,0.53764 -0.0391,0.64006 -0.18993,0.93475 -0.24142,0.47205 -0.56394,0.66552 -1.15429,0.69236 -0.35316,0.0159 -0.47443,-0.002 -0.66246,-0.0977 -0.12664,-0.0647 -0.24607,-0.14324 -0.26549,-0.17457 -0.10555,-0.17092 -0.14132,0.0111 -0.14132,0.72021 0,0.52949 -0.0215,0.7989 -0.0675,0.84494 -0.0707,0.0707 -0.73049,0.0957 -0.79612,0.0301 z m 1.9362,-2.07596 c 0.27337,-0.14133 0.41512,-0.48702 0.41532,-1.01278 0,-0.70767 -0.224,-1.0385 -0.7057,-1.04084 -0.33279,-0.001 -0.50203,0.12902 -0.66837,0.51569 -0.10204,0.2373 -0.12168,0.36459 -0.0993,0.64388 0.0604,0.75234 0.54318,1.16029 1.05803,0.89405 z m -4.89157,0.70079 c -0.18485,-0.0562 -0.18573,-0.0581 -0.16898,-0.37806 0.0159,-0.30373 0.0246,-0.32107 0.15761,-0.31274 0.0774,0.005 0.25388,0.0379 0.39207,0.0733 0.47111,0.12088 0.9035,-0.0513 0.9035,-0.35974 0,-0.18454 -0.20763,-0.33671 -0.66493,-0.48729 -0.20743,-0.0683 -0.44375,-0.17081 -0.52513,-0.22778 -0.399,-0.27934 -0.44494,-1.0087 -0.0877,-1.39277 0.32514,-0.34956 1.1229,-0.50136 1.75655,-0.33426 l 0.28165,0.0743 -0.0143,0.27857 c -0.008,0.15314 -0.0345,0.29824 -0.0586,0.32228 -0.024,0.0241 -0.13126,0.0187 -0.23824,-0.0127 -0.29419,-0.0843 -0.74394,-0.0682 -0.88682,0.0319 -0.0821,0.0575 -0.1252,0.14596 -0.1252,0.25665 0,0.18061 0.0658,0.22155 0.76045,0.47313 0.40609,0.14707 0.68339,0.44225 0.73428,0.78165 0.0734,0.48972 -0.12727,0.89293 -0.55655,1.11782 -0.19217,0.10076 -0.34499,0.12519 -0.85369,0.13701 -0.34077,0.008 -0.70322,-0.0111 -0.80543,-0.042 z m -5.89927,-0.0637 c -0.0159,-0.0401 -0.0214,-1.07411 -0.0127,-2.29783 l 0.0144,-2.2249 0.45062,0 0.45064,0 0,2.28135 0,2.28134 -0.43738,0.0164 c -0.31828,0.0128 -0.44505,-0.003 -0.4654,-0.0564 z m 1.87201,0.0329 c -0.0218,-0.0218 -0.0398,-0.78333 -0.0398,-1.69211 l 0,-1.65234 0.42247,0 c 0.38063,0 0.42247,0.0111 0.42247,0.10938 0,0.17445 0.10236,0.19102 0.27623,0.0447 0.36682,-0.30864 1.11802,-0.34638 1.5256,-0.0767 0.12759,0.0845 0.2657,0.24884 0.34594,0.41182 0.12887,0.26159 0.1335,0.31752 0.1335,1.56686 l 0,1.29557 -0.42247,0 -0.42247,0 -0.0281,-1.15476 c -0.0355,-1.45476 -0.0834,-1.57722 -0.61665,-1.57722 -0.13334,0 -0.27123,0.0456 -0.36834,0.12216 -0.28456,0.22382 -0.33288,0.43118 -0.36535,1.56776 l -0.0297,1.04209 -0.39676,0.0163 c -0.21825,0.01 -0.41468,-0.002 -0.43657,-0.0235 z m 11.04056,0 c -0.0219,-0.0218 -0.0398,-0.78333 -0.0398,-1.69211 l 0,-1.65234 0.45147,0 0.45149,0 -0.0144,1.67581 -0.0144,1.67578 -0.39677,0.0163 c -0.21821,0.01 -0.41467,-0.001 -0.43655,-0.0234 z m 1.81102,-0.0351 c -0.0112,-0.0388 -0.0127,-0.79679 -0.005,-1.68456 l 0.0159,-1.61414 0.29408,-0.0235 c 0.39023,-0.0309 0.4912,0.0241 0.4912,0.26821 0,0.10731 0.0165,0.19517 0.0369,0.19517 0.0203,0 0.12312,-0.10076 0.22862,-0.22406 0.19933,-0.23285 0.50133,-0.3658 0.75094,-0.33058 0.12679,0.0179 0.141,0.0503 0.17021,0.38564 0.0176,0.20139 0.0223,0.39474 0.0112,0.42969 -0.0128,0.0378 -0.14324,0.0607 -0.32371,0.0564 -0.26067,-0.006 -0.32558,0.0144 -0.46941,0.1525 -0.23588,0.22571 -0.29525,0.50955 -0.30828,1.47383 -0.006,0.46471 -0.032,0.87664 -0.057,0.91538 -0.029,0.0451 -0.18443,0.0704 -0.43052,0.0704 -0.25969,0 -0.39149,-0.0229 -0.40508,-0.0704 z m 2.56935,0.002 c -0.0159,-0.0406 -0.0216,-0.79571 -0.0127,-1.67829 l 0.0143,-1.60466 0.43738,-0.0165 0.4374,-0.0164 -0.0144,1.67818 -0.0144,1.6782 -0.4092,0.0164 c -0.29721,0.0128 -0.41693,-0.003 -0.43745,-0.057 z m 1.82435,-0.002 c -0.0112,-0.0388 -0.0127,-0.79687 -0.005,-1.68479 l 0.0159,-1.61435 0.32224,-0.0226 c 0.37089,-0.026 0.51937,0.0264 0.51937,0.18337 0,0.1418 -0.002,0.14228 0.32843,-0.0631 0.73498,-0.45686 1.66982,-0.16657 1.87237,0.58146 0.0643,0.23779 0.0808,2.54259 0.019,2.64285 -0.0163,0.0262 -0.2024,0.0476 -0.41383,0.0476 -0.33966,0 -0.38793,-0.0127 -0.41452,-0.11497 -0.0164,-0.0632 -0.0332,-0.58341 -0.0369,-1.15589 -0.008,-1.11403 -0.0144,-1.16839 -0.18964,-1.3625 -0.16716,-0.18572 -0.58568,-0.17831 -0.79321,0.0143 -0.28514,0.26428 -0.32958,0.47194 -0.32083,1.49923 0.005,0.51475 -0.008,0.97737 -0.0274,1.02802 -0.0283,0.0736 -0.11785,0.0921 -0.44575,0.0921 -0.28008,0 -0.4168,-0.0224 -0.43054,-0.0704 z m -6.17687,-3.97714 c -0.0514,-0.0325 -0.0682,-0.16237 -0.0564,-0.43569 l 0.017,-0.38927 0.42247,0 0.42247,0 0.017,0.38927 c 0.0198,0.45771 -0.004,0.48211 -0.43935,0.48211 -0.17039,0 -0.34274,-0.0209 -0.38299,-0.0464 z m 4.49505,0 c -0.12759,-0.0361 -0.14244,-0.0719 -0.15745,-0.3807 -0.021,-0.43358 0.0325,-0.4824 0.50452,-0.46006 l 0.35697,0.017 0.0169,0.38926 c 0.01,0.23102 -0.008,0.40423 -0.0426,0.42605 -0.0829,0.0513 -0.50873,0.0567 -0.67834,0.008 z m -53.36119,-1.05702 c -0.0216,-0.0215 -0.0391,-0.40801 -0.0391,-0.85892 l 0,-0.8198 0.69004,-0.66288 c 0.47183,-0.45328 0.72566,-0.65864 0.80269,-0.64946 0.10955,0.0127 0.11274,0.0554 0.11274,1.50618 l 0,1.49273 -0.76361,0.016 c -0.42,0.008 -0.78123,-0.002 -0.80271,-0.0235 z"
       id="path3343"
       inkscape:connector-curvature="0" />
  </g>
</svg>
